<?xml version="1.0" encoding="UTF-8" standalone="no"?><!DOCTYPE svg PUBLIC "-//W3C//DTD SVG 1.1//EN" "http://www.w3.org/Graphics/SVG/1.1/DTD/svg11.dtd"><svg width="100%" height="100%" viewBox="0 0 1045 435" version="1.1" xmlns="http://www.w3.org/2000/svg" xmlns:xlink="http://www.w3.org/1999/xlink" xml:space="preserve" xmlns:serif="http://www.serif.com/" style="fill-rule:evenodd;clip-rule:evenodd;stroke-linejoin:round;stroke-miterlimit:2;"><rect id="Mesa-de-trabajo1" serif:id="Mesa de trabajo1" x="0" y="0" width="1045" height="435" style="fill:none;"/><clipPath id="_clip1"><rect id="Mesa-de-trabajo11" serif:id="Mesa de trabajo1" x="0" y="0" width="1045" height="435"/></clipPath><g clip-path="url(#_clip1)"><g><g><path d="M215.015,78.537c-0.01,-1.595 0.742,-3.098 2.024,-4.048c9.871,-7.312 52.957,-39.228 70.985,-52.581c1.518,-1.124 3.539,-1.297 5.226,-0.448c1.687,0.85 2.751,2.577 2.751,4.465c0,26.078 0,95.441 0,108.822c0,1.432 -0.614,2.795 -1.686,3.744c-9.037,7.999 -52.011,46.037 -70.279,62.207c-1.469,1.3 -3.562,1.621 -5.353,0.821c-1.791,-0.8 -2.949,-2.574 -2.96,-4.535c-0.17,-28.539 -0.618,-103.686 -0.706,-118.448Z" style="fill:#021d4b;"/><path d="M295.985,280.537c0.01,-1.595 -0.742,-3.098 -2.024,-4.048c-9.871,-7.312 -52.957,-39.228 -70.985,-52.581c-1.518,-1.124 -3.539,-1.297 -5.226,-0.448c-1.687,0.85 -2.751,2.577 -2.751,4.465c-0,27.826 -0,105.531 -0,120.545c0,1.59 0.756,3.086 2.037,4.028c9.809,7.215 52.428,38.562 70.272,51.688c1.515,1.114 3.526,1.284 5.206,0.441c1.68,-0.844 2.745,-2.559 2.756,-4.439c0.164,-27.566 0.624,-104.677 0.713,-119.651Z" style="fill:#00b1b7;"/><path d="M81.96,2.157c1.511,-1.157 3.547,-1.356 5.254,-0.514c1.706,0.842 2.786,2.58 2.786,4.483c-0,59.331 -0,361.378 -0,423.639c0,1.975 -1.163,3.765 -2.967,4.568c-1.804,0.803 -3.912,0.469 -5.38,-0.853c-17.578,-15.836 -58.1,-52.342 -74.04,-66.703c-4.21,-3.793 -6.613,-9.193 -6.613,-14.859c-0,-43.381 -0,-232.397 -0,-277.89c0,-6.225 2.898,-12.095 7.84,-15.879c16.804,-12.868 56.139,-42.989 73.12,-55.993Z" style="fill:#011c4a;"/><path d="M190.011,13.729c1.533,-1.03 3.509,-1.13 5.139,-0.261c1.63,0.869 2.648,2.565 2.648,4.412c-0,28.436 -0,113.081 -0,135.183c0,3.446 -1.187,6.788 -3.361,9.462c-9.819,12.078 -38.273,47.081 -46.309,56.966c-1.235,1.52 -1.201,3.707 0.082,5.187c8.084,9.329 36.026,41.572 46.118,53.217c2.368,2.732 3.669,6.228 3.664,9.844c-0.03,21.892 -0.14,101.811 -0.18,130.457c-0.003,1.915 -1.099,3.661 -2.823,4.494c-1.724,0.834 -3.773,0.609 -5.276,-0.578c-18.233,-14.403 -62.344,-49.249 -80.111,-63.283c-4.802,-3.793 -7.603,-9.575 -7.603,-15.694c-0,-42.819 -0,-214.93 -0,-259.65c0,-6.664 3.319,-12.89 8.851,-16.604c18.609,-12.495 61.521,-41.309 79.16,-53.152Z" style="fill:#004ffe;"/></g></g><g transform="matrix(2.534081,0,0,2.534081,-1122.516399,-1330.963837)"><g><g transform="matrix(85.158828,0,0,85.158828,584,641)"><path d="M0.02,-0.7l0.11,0l0,0.433l0.19,-0.233l0.128,0l-0.153,0.19l0.163,0.31l-0.125,-0l-0.114,-0.216l-0.089,0.111l0,0.105l-0.11,-0l-0,-0.7Z" style="fill:#011c4a;fill-rule:nonzero;"/></g><g transform="matrix(85.158828,0,0,85.158828,623.854331,641)"><path d="M0.13,-0.5l0,0.261c0,0.031 0.006,0.057 0.017,0.078c0.012,0.021 0.026,0.036 0.044,0.047c0.017,0.011 0.036,0.016 0.056,0.016c0.02,-0 0.039,-0.005 0.056,-0.015c0.017,-0.01 0.032,-0.026 0.044,-0.047c0.012,-0.021 0.018,-0.047 0.017,-0.079l0,-0.261l0.11,0l0,0.5l-0.11,-0l0,-0.033c-0.022,0.014 -0.046,0.024 -0.071,0.03c-0.025,0.006 -0.051,0.007 -0.076,0.004c-0.026,-0.003 -0.05,-0.01 -0.074,-0.022c-0.024,-0.012 -0.045,-0.028 -0.063,-0.048c-0.018,-0.02 -0.033,-0.044 -0.044,-0.073c-0.011,-0.029 -0.016,-0.061 -0.016,-0.098l0,-0.261l0.11,0Z" style="fill:#011c4a;fill-rule:nonzero;"/></g><g transform="matrix(85.158828,0,0,85.158828,665.922792,641)"><path d="M0.278,0.006c-0.057,0 -0.105,-0.013 -0.144,-0.038c-0.038,-0.025 -0.067,-0.057 -0.086,-0.095c-0.019,-0.038 -0.029,-0.079 -0.029,-0.123c0,-0.044 0.009,-0.085 0.029,-0.123c0.019,-0.038 0.048,-0.07 0.086,-0.095c0.038,-0.025 0.086,-0.038 0.144,-0.038c0.044,0 0.083,0.008 0.115,0.023c0.033,0.015 0.06,0.035 0.082,0.061c0.022,0.026 0.037,0.057 0.047,0.092c0.01,0.035 0.014,0.073 0.013,0.113l-0.403,0c0.003,0.015 0.009,0.029 0.016,0.042c0.007,0.014 0.017,0.026 0.029,0.037c0.012,0.011 0.027,0.019 0.044,0.025c0.017,0.006 0.035,0.009 0.056,0.009c0.023,-0 0.044,-0.004 0.061,-0.011c0.018,-0.008 0.033,-0.018 0.045,-0.03l0.084,0.075c-0.021,0.023 -0.048,0.042 -0.08,0.056c-0.032,0.014 -0.069,0.021 -0.111,0.021Zm0,-0.402c-0.036,-0 -0.065,0.009 -0.088,0.026c-0.023,0.017 -0.039,0.038 -0.049,0.064l0.274,0c-0.01,-0.025 -0.026,-0.046 -0.049,-0.063c-0.023,-0.017 -0.052,-0.026 -0.088,-0.026Z" style="fill:#011c4a;fill-rule:nonzero;"/></g><g transform="matrix(85.158828,0,0,85.158828,713.356259,641)"><path d="M0.364,-0l0,-0.261c0,-0.031 -0.006,-0.057 -0.017,-0.078c-0.012,-0.021 -0.026,-0.036 -0.044,-0.047c-0.017,-0.011 -0.036,-0.016 -0.056,-0.016c-0.02,0 -0.039,0.005 -0.056,0.016c-0.017,0.01 -0.032,0.026 -0.044,0.047c-0.012,0.021 -0.017,0.047 -0.017,0.079l0,0.261l-0.11,-0l-0,-0.5l0.11,0l0,0.033c0.022,-0.015 0.046,-0.025 0.071,-0.03c0.025,-0.006 0.051,-0.007 0.077,-0.004c0.026,0.003 0.05,0.01 0.074,0.022c0.024,0.012 0.045,0.028 0.062,0.048c0.018,0.02 0.033,0.044 0.043,0.073c0.011,0.029 0.017,0.061 0.017,0.098l0,0.261l-0.11,-0Z" style="fill:#011c4a;fill-rule:nonzero;"/></g><g transform="matrix(85.158828,0,0,85.158828,752.018367,641)"><path d="M0.355,-0c-0.043,-0 -0.081,-0.006 -0.111,-0.018c-0.031,-0.012 -0.056,-0.028 -0.076,-0.05c-0.02,-0.021 -0.035,-0.047 -0.044,-0.077c-0.009,-0.03 -0.014,-0.062 -0.014,-0.098l0,-0.168l-0.089,0l-0,-0.09l0.089,0l0,-0.167l0.11,0l0,0.167l0.136,0l0,0.09l-0.136,0l0,0.168c0,0.021 0.001,0.04 0.004,0.058c0.002,0.018 0.008,0.033 0.017,0.046c0.009,0.013 0.023,0.023 0.041,0.03c0.018,0.007 0.043,0.01 0.074,0.008l0,0.1Z" style="fill:#011c4a;fill-rule:nonzero;"/></g><g transform="matrix(85.158828,0,0,85.158828,783.952927,641)"><path d="M0.338,-0.397c-0.029,-0.005 -0.056,-0.006 -0.081,-0.003c-0.025,0.003 -0.047,0.011 -0.066,0.023c-0.019,0.012 -0.034,0.027 -0.045,0.046c-0.011,0.019 -0.016,0.043 -0.016,0.07l0,0.261l-0.11,-0l-0,-0.5l0.11,0l0,0.06c0.027,-0.029 0.058,-0.049 0.096,-0.059c0.037,-0.01 0.075,-0.01 0.113,-0.001l0,0.103Z" style="fill:#011c4a;fill-rule:nonzero;"/></g><g transform="matrix(85.158828,0,0,85.158828,811.033434,641)"><path d="M0.272,-0c-0.056,-0 -0.103,-0.012 -0.14,-0.037c-0.037,-0.025 -0.065,-0.055 -0.084,-0.092c-0.019,-0.037 -0.028,-0.077 -0.028,-0.12c0,-0.043 0.009,-0.083 0.028,-0.12c0.019,-0.037 0.046,-0.068 0.084,-0.093c0.037,-0.025 0.083,-0.037 0.14,-0.037c0.043,0 0.081,0.008 0.112,0.023c0.032,0.015 0.058,0.035 0.078,0.06c0.02,0.025 0.035,0.053 0.045,0.084c0.01,0.031 0.015,0.063 0.015,0.095l0,0.238l-0.11,-0l0,-0.038c-0.019,0.012 -0.04,0.021 -0.063,0.028c-0.023,0.007 -0.049,0.01 -0.078,0.01Zm0,-0.39c-0.031,0 -0.058,0.007 -0.079,0.021c-0.021,0.014 -0.037,0.031 -0.047,0.052c-0.01,0.021 -0.015,0.043 -0.015,0.068c0,0.024 0.005,0.046 0.015,0.068c0.01,0.021 0.026,0.038 0.047,0.052c0.021,0.014 0.047,0.021 0.079,0.021c0.031,0 0.057,-0.007 0.079,-0.021c0.021,-0.014 0.037,-0.031 0.047,-0.052c0.01,-0.021 0.016,-0.043 0.016,-0.068c0,-0.024 -0.005,-0.047 -0.016,-0.068c-0.01,-0.021 -0.026,-0.038 -0.047,-0.052c-0.021,-0.014 -0.047,-0.02 -0.079,-0.021Z" style="fill:#011c4a;fill-rule:nonzero;"/></g></g></g></g></svg>